<svg width="36" height="30" viewBox="0 0 36 30" fill="none" xmlns="http://www.w3.org/2000/svg">
<path d="M13 20L23 10" stroke="#2E2E2D" stroke-width="1.5" stroke-linecap="round"/>
<path d="M23.8332 19.166C23.8332 19.608 23.6576 20.032 23.345 20.3445C23.0325 20.6571 22.6085 20.8327 22.1665 20.8327C21.7245 20.8327 21.3006 20.6571 20.988 20.3445C20.6754 20.032 20.4998 19.608 20.4998 19.166C20.4998 18.724 20.6754 18.3001 20.988 17.9875C21.3006 17.6749 21.7245 17.4993 22.1665 17.4993C22.6085 17.4993 23.0325 17.6749 23.345 17.9875C23.6576 18.3001 23.8332 18.724 23.8332 19.166ZM15.4998 10.8327C15.4998 11.2747 15.3242 11.6986 15.0117 12.0112C14.6991 12.3238 14.2752 12.4993 13.8332 12.4993C13.3911 12.4993 12.9672 12.3238 12.6547 12.0112C12.3421 11.6986 12.1665 11.2747 12.1665 10.8327C12.1665 10.3907 12.3421 9.96673 12.6547 9.65417C12.9672 9.34161 13.3911 9.16602 13.8332 9.16602C14.2752 9.16602 14.6991 9.34161 15.0117 9.65417C15.3242 9.96673 15.4998 10.3907 15.4998 10.8327Z" fill="#2E2E2D"/>
<path d="M21.3399 1.66602H14.6599C8.36327 1.66602 5.2166 1.66602 3.25994 3.61935C1.79327 5.08102 1.4266 7.20935 1.33327 10.8227C1.3216 11.286 1.7016 11.656 2.14994 11.7743C2.86381 11.9602 3.49585 12.3777 3.94704 12.9613C4.39824 13.5449 4.6431 14.2617 4.64327 14.9993C4.64327 16.5477 3.5866 17.8493 2.15327 18.2243C1.70327 18.341 1.32327 18.711 1.3366 19.1743C1.42827 22.791 1.7966 24.9177 3.25994 26.3793M27.9999 1.83268C30.1816 2.04602 31.6483 2.52768 32.7416 3.61935C34.2049 5.08102 34.5749 7.20935 34.6666 10.8227C34.6783 11.286 34.2983 11.656 33.8499 11.7743C33.1361 11.9602 32.504 12.3777 32.0528 12.9613C31.6016 13.5449 31.3568 14.2617 31.3566 14.9993C31.3566 16.5477 32.4133 17.8493 33.8466 18.2243C34.2966 18.341 34.6766 18.711 34.6633 19.1743C34.5716 22.791 34.2033 24.9177 32.7399 26.3793C30.7833 28.3327 27.6366 28.3327 21.3399 28.3327H14.6599C12.7166 28.3327 11.0683 28.3327 9.6666 28.2743" stroke="#2E2E2D" stroke-width="1.5" stroke-linecap="round"/>
</svg>
