<svg width="30" height="8" viewBox="0 0 30 8" fill="none" xmlns="http://www.w3.org/2000/svg">
<path d="M29.3955 2.57221L29.4023 2.56494H28.3263L27.6467 4.85501H27.6107L26.8305 2.56494H25.5518L27.0904 6.34426L26.4476 7.49624V7.52401H27.4515L29.3955 2.57221Z" fill="black"/>
<path d="M17.4655 2.56494H16.3241V6.33037H17.4655V2.56494Z" fill="black"/>
<path d="M25.3275 5.3889V3.81568C25.3275 2.95864 24.8072 2.48779 23.8896 2.48779C23.3039 2.48779 22.8999 2.58633 22.1626 2.80389L22.3646 3.66821C23.0366 3.37327 23.3325 3.24696 23.6433 3.24696C24.0188 3.24696 24.1855 3.50685 24.1855 3.9076V3.93537C22.8774 4.1741 22.4727 4.30768 22.2204 4.55369C22.0326 4.7362 21.9531 4.99609 21.9531 5.29831C21.9531 6.02177 22.5312 6.40796 23.0727 6.40796C23.4774 6.40796 23.8025 6.2605 24.2433 5.93712L24.3229 6.33059H25.4642L25.3275 5.3889ZM24.1861 5.41734C23.8828 5.5787 23.7093 5.64218 23.5073 5.64218C23.2325 5.64218 23.0591 5.46628 23.0591 5.18589C23.0591 5.08074 23.0808 4.97493 23.1672 4.89095C23.3046 4.75737 23.5719 4.65883 24.1861 4.51864V5.41734Z" fill="black"/>
<path d="M20.3058 2.48779C19.8868 2.48779 19.5617 2.64254 19.193 2.93747V2.56517H18.0516V7.52424H19.193V6.29488C19.41 6.35109 19.612 6.37953 19.8575 6.37953C20.8765 6.37953 21.7941 5.64879 21.7941 4.34935C21.7941 3.18348 21.1295 2.48779 20.3058 2.48779ZM19.5827 5.68384C19.4528 5.68384 19.3297 5.66996 19.1923 5.62763V3.59084C19.4311 3.42948 19.6256 3.35211 19.8711 3.35211C20.2976 3.35211 20.637 3.6821 20.637 4.38506C20.6377 5.28376 20.1391 5.68384 19.5827 5.68384Z" fill="black"/>
<path d="M6.64915 0.624512H1.75517C1.11783 0.624512 0.601562 1.13107 0.601562 1.75533V6.55371C0.601562 7.17797 1.11783 7.68453 1.75517 7.68453H6.64915C7.28649 7.68453 7.80207 7.17797 7.80207 6.55371V1.75533C7.80275 1.1304 7.28649 0.624512 6.64915 0.624512Z" fill="#1677FF"/>
<path d="M6.5311 5.05766C6.24337 4.9631 5.85635 4.81827 5.42578 4.66551C5.68426 4.22443 5.89104 3.7225 6.02707 3.17693H4.60751V2.67567H6.34608V2.39594H4.60751V1.56006H3.89807C3.7736 1.56006 3.7736 1.68042 3.7736 1.68042V2.39528H2.0153V2.67501H3.7736V3.17627H2.32139V3.456H5.13738C5.03467 3.80384 4.89591 4.13119 4.73199 4.42811C3.81849 4.13251 2.84309 3.89312 2.23092 4.04059C1.83913 4.13515 1.58678 4.30378 1.4385 4.48101C0.758307 5.29242 1.246 6.52508 2.68257 6.52508C3.53213 6.52508 4.3504 6.06085 4.98434 5.29573C5.93049 5.74145 7.80305 6.50723 7.80305 6.50723V5.41609C7.80373 5.41609 7.56839 5.39757 6.5311 5.05766ZM2.54857 6.05358C1.4283 6.05358 1.09704 5.1886 1.65072 4.71511C1.83573 4.55508 2.17311 4.47704 2.35268 4.45985C3.0179 4.3957 3.63416 4.64435 4.36128 4.9922C3.85046 5.64556 3.19951 6.05358 2.54857 6.05358Z" fill="white"/>
<path d="M12.4001 1.37646H10.8683L9.15625 6.32892H10.2112L10.5003 5.35946H12.3137L12.5885 6.32892H13.9394L12.4001 1.37646ZM10.7384 4.55136L11.4172 2.26855H11.4458L12.0886 4.55136H10.7384Z" fill="black"/>
<path d="M15.5437 1.20117H14.4023V6.32887H15.5437V1.20117Z" fill="black"/>
<path d="M16.2364 1.65938C16.2364 2.02442 16.5112 2.27042 16.8941 2.27042C17.2771 2.27042 17.5519 2.02442 17.5519 1.65938C17.5519 1.30096 17.2771 1.04834 16.8941 1.04834C16.5112 1.04834 16.2364 1.30096 16.2364 1.65938Z" fill="#1677FF"/>
</svg>
