<svg width="29" height="9" viewBox="0 0 29 9" fill="none" xmlns="http://www.w3.org/2000/svg">
<path fill-rule="evenodd" clip-rule="evenodd" d="M18.2185 7.8455C18.4212 7.34521 18.8723 6.22406 18.6578 5.95238H18.6593C18.4458 5.68012 17.2471 5.823 16.708 5.88726L16.7068 5.8874C16.5428 5.90697 16.5176 5.76526 16.6651 5.6627C17.6224 4.99486 19.1908 5.1859 19.373 5.41138C19.5551 5.63686 19.3233 7.19802 18.4267 7.94337C18.2887 8.05767 18.157 7.9966 18.2185 7.8455ZM11.7764 8.61816C13.8613 8.61816 16.2893 7.96442 17.9619 6.73914V6.74148C18.2387 6.53479 18.0013 6.23102 17.719 6.35002C15.8934 7.11457 13.9336 7.51367 11.9522 7.52441C9.20328 7.52441 6.54423 6.77593 4.39302 5.53343C4.20455 5.4246 4.06419 5.61642 4.2219 5.75656C6.29292 7.61175 8.98704 8.63228 11.7764 8.61816Z" fill="#FF9900"/>
<path d="M2.2533 0.0131836C2.687 0.0131836 3.25345 0.126954 3.59412 0.452637C3.99402 0.824372 3.99135 1.31145 3.98865 1.84326V3.35303C3.98869 3.72381 4.12685 3.90872 4.27283 4.10303C4.29002 4.12592 4.3074 4.14888 4.32458 4.17236C4.38136 4.25066 4.39398 4.349 4.32458 4.40771C4.14237 4.55888 3.81929 4.83735 3.64197 4.99463L3.63513 4.99268C3.57649 5.04317 3.49183 5.05198 3.42419 5.01416C3.17199 4.80581 3.09568 4.69301 2.97888 4.52002C2.95883 4.49032 2.93799 4.45837 2.91443 4.42432C2.42473 4.91913 2.07792 5.06787 1.4447 5.06787C0.695012 5.06772 0.111793 4.60782 0.111694 3.68896C0.111694 2.97102 0.505987 2.48323 1.05798 2.24365C1.46558 2.06607 2.00968 2.01103 2.47986 1.96338C2.56715 1.95453 2.65192 1.94608 2.73279 1.93701V1.60693C2.72872 1.45588 2.70823 1.30293 2.62439 1.18018C2.51553 1.01748 2.30883 0.950684 2.12439 0.950684C1.78469 0.950826 1.48169 1.12428 1.40759 1.48193C1.39808 1.5652 1.33382 1.63141 1.25037 1.64404L0.393921 1.55127C0.351188 1.54519 0.312511 1.52173 0.287476 1.48682C0.262669 1.45201 0.252993 1.40858 0.261108 1.3667C0.459035 0.326992 1.4056 0.0131955 2.2533 0.0131836ZM13.9281 0.00830078C14.361 0.0083148 14.9275 0.123053 15.2689 0.44873C15.6693 0.818495 15.6665 1.30164 15.6635 1.83057C15.6632 1.87707 15.6625 1.92402 15.6625 1.97119V3.34912C15.6625 3.7192 15.8017 3.90387 15.9476 4.09814C15.9649 4.12117 15.9821 4.14483 15.9994 4.16846C16.0592 4.24984 16.0719 4.34495 15.9955 4.39893C15.8134 4.54998 15.4903 4.82924 15.3129 4.98584C15.2539 5.03564 15.1695 5.04391 15.1019 5.00635C14.8489 4.79732 14.7739 4.68621 14.6556 4.51123C14.6358 4.48196 14.6144 4.45012 14.5912 4.4165C14.1023 4.91131 13.7533 5.06006 13.1224 5.06006C12.3728 5.05987 11.7896 4.60009 11.7894 3.68213C11.7894 2.96343 12.1814 2.47543 12.7396 2.23584C13.148 2.05761 13.6949 2.00287 14.1664 1.95557C14.2519 1.94699 14.3351 1.93797 14.4144 1.9292V1.81787C14.4144 1.79618 14.4152 1.77386 14.4154 1.75146C14.417 1.55649 14.4185 1.33918 14.306 1.17627C14.2004 1.01349 13.9897 0.945859 13.806 0.945801C13.4662 0.945801 13.1652 1.11933 13.0902 1.47705C13.0806 1.56039 13.0155 1.62729 12.932 1.64014L12.0687 1.54736C12.0257 1.5415 11.9865 1.51803 11.9613 1.48291C11.9363 1.44786 11.9265 1.40397 11.9349 1.36182C12.1337 0.321378 13.0804 0.00830078 13.9281 0.00830078ZM22.5365 0.00537109C23.8588 0.00548953 24.5736 1.13324 24.5736 2.56592C24.5734 3.95061 23.7853 5.04919 22.5365 5.04932C21.2394 5.04932 20.5327 3.92168 20.5326 2.51807C20.5326 1.11428 21.248 0.00537109 22.5365 0.00537109ZM9.55994 0.0229492C10.0293 -0.0490747 10.5017 0.135633 10.7953 0.506348C11.0784 0.888416 11.0199 1.44633 11.0199 1.93018V4.79443C11.0191 4.83867 11.0002 4.88093 10.9681 4.91162C10.9359 4.94227 10.8926 4.95942 10.848 4.9585H9.9574C9.86984 4.95389 9.8013 4.88246 9.80017 4.79541V2.38916C9.80017 2.19816 9.81655 1.72028 9.77478 1.53857C9.70858 1.23341 9.50899 1.14707 9.25134 1.14697C9.01499 1.15414 8.80473 1.30058 8.71814 1.51904C8.62676 1.74925 8.63513 2.13088 8.63513 2.38916V4.79443C8.6343 4.83866 8.61547 4.88093 8.58337 4.91162C8.55137 4.9422 8.50864 4.9592 8.46423 4.9585H7.57166C7.48425 4.95354 7.41496 4.88232 7.41345 4.79541V2.38916C7.41345 1.88265 7.49238 1.13635 6.86169 1.13623C6.23084 1.13623 6.24646 1.86225 6.24646 2.38916V4.79443C6.24563 4.83873 6.22686 4.88092 6.1947 4.91162C6.16245 4.94232 6.11926 4.95949 6.07458 4.9585H5.18298C5.1007 4.95398 5.03394 4.89052 5.02576 4.80908V0.268066C5.02875 0.177204 5.10417 0.105274 5.19568 0.105957H6.02673C6.11162 0.110753 6.17919 0.177912 6.18396 0.262207V0.85498H6.20056C6.41663 0.281099 6.82457 0.0141602 7.37341 0.0141602C7.9222 0.0141904 8.2797 0.281128 8.52966 0.85498C8.69658 0.413416 9.09049 0.095142 9.55994 0.0229492ZM27.639 0.000488281C28.0381 0.000488281 28.4285 0.144181 28.6801 0.535645C28.9123 0.898855 28.9125 1.50974 28.9125 1.94873V4.80615C28.8995 4.88935 28.8263 4.95025 28.7416 4.94873H27.8451C27.7649 4.94518 27.6989 4.88513 27.6879 4.80615V2.34033C27.6879 1.84401 27.7458 1.1178 27.1302 1.11768C26.9016 1.12817 26.7002 1.2702 26.6146 1.48096C26.49 1.75811 26.473 2.03538 26.473 2.34229V4.78564C26.4696 4.87767 26.3929 4.95022 26.3002 4.94873H25.4105C25.3232 4.94393 25.2544 4.87255 25.2533 4.78564V0.244629C25.2628 0.158548 25.337 0.0941716 25.4242 0.0961914H26.2504C26.3256 0.0985892 26.3906 0.150546 26.4086 0.223145V0.91748H26.4261C26.6753 0.296776 27.0242 0.000637085 27.639 0.000488281ZM19.849 0.0883789C19.8933 0.0868975 19.9363 0.103636 19.9681 0.134277C20 0.165176 20.0184 0.208221 20.0179 0.252441V0.809082C20.0179 0.90223 19.9383 1.0248 19.7972 1.21729L18.2806 3.3667C18.8436 3.35341 19.4388 3.43741 19.9506 3.72314C20.0451 3.77318 20.1058 3.86977 20.1088 3.97607V4.67139C20.1086 4.76684 20.003 4.87692 19.892 4.81982C18.9209 4.32438 17.7685 4.32675 16.7992 4.82568C16.6976 4.87965 16.5904 4.77074 16.5902 4.67529V4.01318C16.581 3.85733 16.6194 3.70218 16.6996 3.56787L18.4574 1.06299H16.9242C16.8796 1.0647 16.8361 1.04794 16.8041 1.01709C16.772 0.986167 16.7538 0.943287 16.7543 0.898926V0.252441C16.7522 0.208167 16.7694 0.164492 16.8011 0.133301C16.8328 0.102228 16.8768 0.0858979 16.9213 0.0883789H19.849ZM2.73572 2.646C2.0916 2.64606 1.4115 2.78363 1.4115 3.53662C1.41158 3.92012 1.61114 4.17822 1.95251 4.17822C2.20322 4.17816 2.42779 4.0248 2.5697 3.77588C2.73668 3.48107 2.73701 3.20501 2.73669 2.87939C2.73668 2.8652 2.73572 2.85081 2.73572 2.83643V2.646ZM14.4174 2.64209C13.7731 2.64209 13.0922 2.77782 13.0922 3.53174C13.0922 3.91459 13.2917 4.17334 13.6332 4.17334C13.8831 4.17332 14.1082 4.01916 14.2494 3.771C14.4169 3.47459 14.4176 3.19736 14.4174 2.86768V2.64209ZM22.5433 0.932129C21.8869 0.932477 21.8451 1.8203 21.8451 2.37451C21.8451 2.38056 21.8451 2.38687 21.8451 2.39307C21.845 2.95471 21.8453 4.11279 22.5355 4.11279C23.2329 4.11236 23.2592 3.15707 23.2592 2.57471C23.2591 2.19272 23.242 1.73395 23.1254 1.37158C23.0252 1.05858 22.8256 0.932129 22.5433 0.932129Z" fill="black"/>
</svg>
