<svg width="26" height="11" viewBox="0 0 26 11" fill="none" xmlns="http://www.w3.org/2000/svg">
<path fill-rule="evenodd" clip-rule="evenodd" d="M3.56241 1.93393C4.04588 1.97358 4.52935 1.69603 4.83152 1.34413C5.12866 0.982324 5.32507 0.496607 5.27471 0.000976562C4.84663 0.0208018 4.31784 0.278529 4.01567 0.640339C3.73868 0.952586 3.50198 1.45813 3.56241 1.93393ZM9.31462 8.31915V0.592285H12.2608C13.7817 0.592285 14.8443 1.6232 14.8443 3.12991C14.8443 4.63662 13.7615 5.67745 12.2205 5.67745H10.5334V8.31915H9.31462ZM5.27122 2.02748C4.84529 2.00335 4.45665 2.15354 4.14274 2.27485C3.94072 2.35292 3.76966 2.41903 3.63951 2.41903C3.49346 2.41903 3.31533 2.34938 3.11533 2.27119C2.85326 2.16873 2.55365 2.05159 2.23946 2.05722C1.51929 2.06713 0.849481 2.46859 0.481841 3.10795C-0.273581 4.38668 0.285432 6.27998 1.01567 7.32081C1.37324 7.83626 1.80131 8.40128 2.36536 8.38145C2.61351 8.37224 2.79201 8.2977 2.97675 8.22055C3.18943 8.13173 3.41036 8.03947 3.75534 8.03947C4.08836 8.03947 4.29963 8.12933 4.50244 8.21559C4.69529 8.29761 4.88047 8.37637 5.15539 8.37154C5.73959 8.36163 6.10722 7.85609 6.46479 7.34063C6.85067 6.78741 7.02024 6.24749 7.04597 6.16555L7.04898 6.15608C7.04837 6.15547 7.0436 6.15332 7.03519 6.14953C6.9062 6.09141 5.92027 5.64721 5.91081 4.45607C5.90132 3.45627 6.69283 2.94971 6.81742 2.86997L6.81743 2.86996C6.82501 2.86511 6.83012 2.86184 6.83243 2.86014C6.32882 2.1266 5.54318 2.0473 5.27122 2.02748ZM17.0724 8.3766C17.8379 8.3766 18.548 7.99496 18.8703 7.3903H18.8955V8.31712H20.0236V4.47104C20.0236 3.35587 19.117 2.63721 17.722 2.63721C16.4277 2.63721 15.4709 3.36578 15.4356 4.36695H16.5335C16.6242 3.89115 17.0724 3.5789 17.6868 3.5789C18.4321 3.5789 18.8501 3.92089 18.8501 4.55034V4.97658L17.3292 5.06579C15.9141 5.15005 15.1486 5.72002 15.1486 6.71128C15.1486 7.71245 15.9392 8.3766 17.0724 8.3766ZM17.3987 7.46087C16.7491 7.46087 16.3361 7.15358 16.3361 6.68273C16.3361 6.19702 16.734 5.91451 17.4944 5.8699L18.8491 5.78564V6.2218C18.8491 6.94542 18.2247 7.46087 17.3987 7.46087ZM23.7638 8.61884C23.2752 9.97191 22.7162 10.418 21.5277 10.418C21.437 10.418 21.1349 10.4081 21.0644 10.3882V9.46142C21.1399 9.47133 21.3263 9.48124 21.4219 9.48124C21.9608 9.48124 22.263 9.25821 22.4493 8.67832L22.5601 8.33634L20.4953 2.71094H21.7694L23.2047 7.27569H23.2299L24.6652 2.71094H25.9041L23.7638 8.61884ZM10.5353 1.60254H11.9404C12.998 1.60254 13.6023 2.15764 13.6023 3.13404C13.6023 4.11043 12.998 4.67049 11.9354 4.67049H10.5353V1.60254Z" fill="black"/>
</svg>
