<svg width="18" height="17" viewBox="0 0 18 17" fill="none" xmlns="http://www.w3.org/2000/svg">
<path d="M9.08484 -0.000488281C13.6656 -0.000316904 17.3787 3.61018 17.3788 8.06396C17.3788 12.5178 13.6657 16.1282 9.08484 16.1284C4.50386 16.1284 0.789917 12.5179 0.789917 8.06396C0.789992 3.61008 4.50391 -0.000488281 9.08484 -0.000488281ZM8.51941 4.45068L6.67664 4.0083L6.43347 4.95459C6.4489 4.95801 7.09364 5.10086 7.09753 5.11377C7.46708 5.2035 7.5346 5.44049 7.52332 5.62842L6.49695 9.61279C6.4516 9.7212 6.33665 9.88474 6.078 9.82275C6.06344 9.82856 5.42836 9.6663 5.41394 9.6626L4.95984 10.6753L6.80066 11.1255L6.42273 12.5962L7.33484 12.8169L7.70984 11.3618C7.95917 11.4268 8.20151 11.4884 8.43835 11.5454L8.06531 12.9927L8.97839 13.2144L9.3573 11.7466C10.9161 12.0319 12.0878 11.9164 12.5809 10.5513C12.8406 9.60246 12.5611 8.81727 11.7411 8.40381C12.3387 8.27071 12.7887 7.89087 12.9091 7.10498C13.0746 6.03153 12.2308 5.45407 11.077 5.06885L11.451 3.61475L10.538 3.39404L10.1737 4.81006C9.93374 4.75209 9.68599 4.697 9.44031 4.64307L9.8075 3.21729L8.89441 2.99658L8.51941 4.45068ZM8.51062 8.34814C9.13024 8.4979 11.1173 8.79436 10.8221 9.94092C10.5392 11.0398 8.62822 10.4456 8.00867 10.2964L8.51062 8.34814ZM9.19421 5.68896C9.7102 5.81401 11.3715 6.04666 11.1034 7.08936C10.8455 8.0885 9.25509 7.58057 8.73914 7.45654L9.19421 5.68896Z" fill="#F7931A"/>
</svg>
