<svg width="24" height="24" viewBox="0 0 24 24" fill="none" xmlns="http://www.w3.org/2000/svg">
<path d="M18.1776 18.1378C16.6362 18.1362 15.3854 19.4473 15.3839 21.066C15.3824 22.6848 16.6308 23.9984 18.1722 24C19.7136 24.0015 20.9643 22.6905 20.9658 21.0717C20.9658 21.0708 20.9658 21.0699 20.9658 21.0689C20.9644 19.4518 19.7173 18.1409 18.1776 18.1378Z" fill="#647167"/>
<path d="M23.1278 4.1021C23.061 4.08852 22.9932 4.08162 22.9251 4.08151H5.93181L5.66267 2.19056C5.49499 0.93474 4.47216 0.000386439 3.26466 0H1.07655C0.481978 0 0 0.50618 0 1.13061C0 1.75504 0.481978 2.26122 1.07655 2.26122H3.26735C3.40423 2.26017 3.52008 2.36721 3.53648 2.50997L5.19436 14.4435C5.42166 15.9599 6.66363 17.0786 8.12529 17.0835H19.3241C20.7313 17.0855 21.9454 16.0468 22.2281 14.599L23.9802 5.42693C24.0932 4.81387 23.7115 4.22074 23.1278 4.1021Z" fill="#647167"/>
<path d="M11.3404 20.9434C11.2749 19.3721 10.0401 18.1351 8.54245 18.1406C7.00232 18.206 5.80423 19.5702 5.86647 21.1877C5.92619 22.7397 7.12832 23.9732 8.60705 24H8.67434C10.2143 23.9291 11.4079 22.5606 11.3404 20.9434Z" fill="#647167"/>
</svg>
