<svg width="21" height="21" viewBox="0 0 21 21" fill="none" xmlns="http://www.w3.org/2000/svg">
<path d="M9.9395 0.931274C4.98078 0.931274 0.941452 4.9706 0.941452 9.92934C0.941452 14.888 4.98078 18.9352 9.9395 18.9352C12.0575 18.9352 14.0054 18.193 15.545 16.9606L19.293 20.7067C19.4822 20.888 19.7348 20.988 19.9968 20.9853C20.2588 20.9827 20.5093 20.8775 20.6947 20.6924C20.8801 20.5072 20.9856 20.2569 20.9887 19.9949C20.9917 19.7329 20.892 19.4801 20.711 19.2907L16.9629 15.5427C18.1964 14.0008 18.9395 12.0498 18.9395 9.92934C18.9395 4.9706 14.8982 0.931274 9.9395 0.931274ZM9.9395 2.93131C13.8173 2.93131 16.9375 6.0515 16.9375 9.92934C16.9375 13.8072 13.8173 16.9352 9.9395 16.9352C6.06166 16.9352 2.94145 13.8072 2.94145 9.92934C2.94145 6.0515 6.06166 2.93131 9.9395 2.93131Z" fill="black"/>
</svg>
