<svg width="40" height="40" viewBox="0 0 40 40" fill="none" xmlns="http://www.w3.org/2000/svg">
<path d="M37.1998 18.0743L36.164 13.9309C36.4472 13.8708 36.6597 13.6195 36.6597 13.3185V12.6505C36.6597 11.2 35.4796 10.02 34.0292 10.02H29.3111V8.64203C29.3111 7.92828 28.7305 7.34766 28.0167 7.34766H3.96656C3.25281 7.34766 2.67219 7.92828 2.67219 8.64203V19.9991C2.67219 20.3449 2.95258 20.6254 3.29852 20.6254C3.64438 20.6254 3.92484 20.345 3.92484 19.9991V8.64203C3.92484 8.61898 3.94352 8.60031 3.96656 8.60031H28.0166C28.0397 8.60031 28.0584 8.61898 28.0584 8.64203V19.9992C28.0584 20.3451 28.3388 20.6255 28.6847 20.6255C29.0306 20.6255 29.311 20.3452 29.311 19.9992V19.2892H36.6992C36.6998 19.2892 36.7003 19.2894 36.7009 19.2894C36.7015 19.2894 36.702 19.2893 36.7026 19.2893C37.6117 19.2899 38.3837 19.8866 38.6488 20.7089H36.7013C36.3555 20.7089 36.075 20.9893 36.075 21.3352V22.6713C36.075 23.7534 36.9553 24.6338 38.0374 24.6338H38.7473V27.3895H37.1096C36.5716 25.8361 35.095 24.7172 33.361 24.7172C31.627 24.7172 30.1503 25.8361 29.6124 27.3895H29.3109V22.6713C29.3109 22.3254 29.0305 22.0449 28.6845 22.0449C28.3387 22.0449 28.0582 22.3253 28.0582 22.6713V27.3893H15.0638C14.5259 25.8359 13.0492 24.717 11.3152 24.717C9.58125 24.717 8.10453 25.8359 7.56664 27.3893H3.96656C3.94352 27.3893 3.92484 27.3706 3.92484 27.3476V25.9697H6.63883C6.98469 25.9697 7.26516 25.6893 7.26516 25.3434C7.26516 24.9974 6.98477 24.717 6.63883 24.717H0.626328C0.280469 24.717 0 24.9974 0 25.3434C0 25.6893 0.280391 25.9697 0.626328 25.9697H2.67227V27.3476C2.67227 28.0613 3.25289 28.642 3.96664 28.642H7.34977C7.34961 28.6559 7.34867 28.6697 7.34867 28.6837C7.34867 30.8709 9.12813 32.6502 11.3152 32.6502C13.5023 32.6502 15.2818 30.8709 15.2818 28.6837C15.2818 28.6696 15.2809 28.6559 15.2807 28.642H29.3955C29.3954 28.6559 29.3945 28.6697 29.3945 28.6837C29.3945 30.8709 31.1739 32.6502 33.361 32.6502C35.5481 32.6502 37.3276 30.8709 37.3276 28.6837C37.3276 28.6696 37.3266 28.6559 37.3265 28.642H39.3736C39.7195 28.642 39.9999 28.3616 39.9999 28.0156V21.3351C40 19.6857 38.7831 18.3153 37.1998 18.0743ZM29.3111 11.2726H34.0292C34.789 11.2726 35.4071 11.8907 35.4071 12.6505V12.6922H29.3111V11.2726ZM29.3111 18.0366V13.9448H34.8763L35.8993 18.0366H29.3111ZM11.3152 31.3978C9.81875 31.3978 8.60125 30.1804 8.60125 28.6838C8.60125 27.1873 9.81875 25.9698 11.3152 25.9698C12.8117 25.9698 14.0292 27.1873 14.0292 28.6838C14.0292 30.1804 12.8117 31.3978 11.3152 31.3978ZM33.3612 31.3978C31.8647 31.3978 30.6472 30.1804 30.6472 28.6838C30.6472 27.1873 31.8647 25.9698 33.3612 25.9698C34.8577 25.9698 36.0752 27.1873 36.0752 28.6838C36.0752 30.1804 34.8577 31.3978 33.3612 31.3978ZM38.7474 23.3811H38.0376C37.6462 23.3811 37.3277 23.0627 37.3277 22.6713V21.9614H38.7473V23.3811H38.7474Z" fill="black"/>
<path d="M11.3139 27.3906C10.6002 27.3906 10.0195 27.9713 10.0195 28.685C10.0195 29.3988 10.6002 29.9794 11.3139 29.9794C12.0277 29.9794 12.6083 29.3988 12.6083 28.685C12.6083 27.9713 12.0277 27.3906 11.3139 27.3906Z" fill="black"/>
<path d="M33.3608 27.3906C32.647 27.3906 32.0664 27.9713 32.0664 28.685C32.0664 29.3988 32.647 29.9794 33.3608 29.9794C34.0745 29.9794 34.6552 29.3988 34.6552 28.685C34.6552 27.9713 34.0745 27.3906 33.3608 27.3906Z" fill="black"/>
<path d="M26.0123 24.7188H16.6595C16.3137 24.7188 16.0332 24.9991 16.0332 25.3451C16.0332 25.691 16.3136 25.9714 16.6595 25.9714H26.0123C26.3582 25.9714 26.6387 25.691 26.6387 25.3451C26.6387 24.9991 26.3583 24.7188 26.0123 24.7188Z" fill="black"/>
<path d="M9.97899 22.0469H1.96227C1.61641 22.0469 1.33594 22.3273 1.33594 22.6732C1.33594 23.0191 1.61633 23.2995 1.96227 23.2995H9.97899C10.3248 23.2995 10.6053 23.0191 10.6053 22.6732C10.6053 22.3273 10.3248 22.0469 9.97899 22.0469Z" fill="black"/>
<path d="M21.7794 13.5447C21.5349 13.3002 21.1382 13.3002 20.8937 13.5448L15.324 19.1144L12.4266 16.217C12.182 15.9724 11.7854 15.9724 11.5409 16.217C11.2963 16.4616 11.2963 16.8581 11.5409 17.1027L14.8812 20.443C15.0035 20.5653 15.1638 20.6264 15.324 20.6264C15.4842 20.6264 15.6446 20.5653 15.7668 20.443L21.7793 14.4305C22.0239 14.1858 22.0239 13.7893 21.7794 13.5447Z" fill="black"/>
</svg>
