<svg width="33" height="15" viewBox="0 0 33 15" fill="none" xmlns="http://www.w3.org/2000/svg">
<path d="M12.4437 14.5005L32.4356 8.75049C32.4356 11.9261 29.8612 14.5005 26.6856 14.5005H12.4437Z" fill="#FD6020"/>
<path d="M12.6371 0.61084C13.022 0.61084 13.4624 0.664487 13.7924 0.879395V1.95361C13.5174 1.63128 13.077 1.4165 12.6371 1.4165C11.7575 1.47042 11.0433 2.22221 11.098 3.08154V3.18896C11.098 4.0486 11.8129 4.69385 12.6927 4.69385C13.1325 4.69375 13.5175 4.47897 13.7924 4.15674V5.23096C13.4074 5.39214 13.0223 5.49951 12.5824 5.49951C11.2076 5.49947 10.1078 4.37098 10.1078 3.02783C10.108 1.63125 11.2076 0.503614 12.6371 0.61084ZM21.2738 3.83447L22.5931 0.61084H23.5834L21.5482 5.49951H21.0541L19.0189 0.61084H20.0092L21.2738 3.83447ZM8.23962 0.503418C8.73446 0.503503 9.22975 0.718229 9.61462 1.04053L9.11951 1.68506C8.89953 1.47015 8.62396 1.30908 8.349 1.30908C8.01932 1.25561 7.74495 1.52411 7.68982 1.84619C7.68982 2.11483 7.85473 2.22308 8.40466 2.43799C9.50413 2.86771 9.77937 3.18984 9.83435 3.83447V3.99561C9.77936 4.85524 9.06385 5.49953 8.18396 5.4458C7.52417 5.44568 6.86444 5.1236 6.53455 4.53271L7.13904 3.94189C7.30401 4.31796 7.68936 4.5864 8.12927 4.58643H8.18396C8.51391 4.58643 8.84409 4.26425 8.84412 3.88818C8.84412 3.67344 8.73447 3.51224 8.5697 3.40479C8.34981 3.29737 8.12944 3.18998 7.90955 3.13623C7.02966 2.8676 6.75427 2.49091 6.75427 1.84619V1.79248C6.80941 1.04044 7.46982 0.449698 8.23962 0.503418ZM2.51892 0.611816C3.83875 0.665544 4.88446 1.74034 4.82947 3.02979C4.82937 3.72795 4.49919 4.37253 3.94958 4.85596C3.45469 5.23201 2.84937 5.44675 2.24451 5.39307H0.869507V0.611816H2.51892ZM28.6429 0.611816C29.7425 0.611867 30.3478 1.09526 30.348 2.0083C30.403 2.70673 29.9073 3.29831 29.2474 3.40576L30.7328 5.39307H29.5775L28.3129 3.45947H28.2025V5.39307H27.2679V0.611816H28.6429ZM6.1488 5.39209H5.21423V0.61084H6.1488V5.39209ZM26.6615 1.4165H24.9564V2.4917H26.6068V3.29736H24.9564V4.58643H26.6615V5.39209H24.0219V0.61084H26.6615V1.4165ZM2.07849 1.41748H1.8031V4.5874H2.07849C2.51835 4.64102 3.01326 4.47999 3.34314 4.21143C3.67295 3.88915 3.83818 3.45943 3.83826 2.97607C3.83826 2.54627 3.67308 2.11582 3.34314 1.79346C3.01327 1.52494 2.51831 1.36389 2.07849 1.41748ZM28.2015 2.81396H28.4769C29.0816 2.81388 29.3568 2.54539 29.3568 2.06201C29.3568 1.63226 29.0817 1.36385 28.4769 1.36377H28.2015V2.81396Z" fill="black"/>
<path fill-rule="evenodd" clip-rule="evenodd" d="M16.5974 0.500488C15.2226 0.500488 14.0677 1.57503 14.0677 2.97193C14.0677 4.3151 15.1676 5.44337 16.5974 5.49709C18.0273 5.55082 19.1271 4.42255 19.1821 3.02565C19.1271 1.62875 18.0273 0.500488 16.5974 0.500488V0.500488Z" fill="#FD6020"/>
</svg>
