<svg width="50" height="51" viewBox="0 0 50 51" fill="none" xmlns="http://www.w3.org/2000/svg">
<g clip-path="url(#clip0_2029_197)">
<path d="M41.1158 3.43015V0.5H8.88422V1.96507C8.88422 2.77291 8.22698 3.43015 7.41914 3.43015H3.02393V23.6481C3.02393 37.8158 11.404 44.6774 24.4233 50.2528L25.0007 50.5001L25.5779 50.2523C38.5849 44.6689 46.9761 37.8059 46.9761 23.6481V3.43015H41.1158ZM44.046 23.6481C44.046 36.2993 36.5945 42.2435 24.9993 47.3098C13.5426 42.3163 5.95407 36.3074 5.95407 23.6481V6.36029H7.41914C9.32931 6.36029 10.9587 5.13559 11.5633 3.43015H38.1857C38.1857 5.04583 39.5001 6.36029 41.1158 6.36029H44.046V23.6481Z" fill="#647167"/>
<path d="M14.7445 12.3183H17.6747V16.7135C17.6747 19.1073 18.8289 21.2362 20.6099 22.5738C18.8289 23.9114 17.6747 26.0404 17.6747 28.4341V32.8293H14.7445V35.7595H35.2555V32.8293H32.3254V28.4341C32.3254 26.0404 31.1711 23.9114 29.3902 22.5738C31.1711 21.2362 32.3254 19.1073 32.3254 16.7135V12.3183H35.2555V9.38818H14.7445V12.3183ZM29.3952 28.4341V32.8293H20.6048V28.4341C20.6048 26.0106 22.5765 24.0389 25 24.0389C27.4235 24.0389 29.3952 26.0106 29.3952 28.4341ZM29.3952 16.7135C29.3952 19.1371 27.4235 21.1088 25 21.1088C22.5765 21.1088 20.6048 19.1371 20.6048 16.7135V12.3183H29.3952V16.7135Z" fill="#647167"/>
</g>
<defs>
<clipPath id="clip0_2029_197">
<rect width="50" height="50" fill="white" transform="translate(0 0.5)"/>
</clipPath>
</defs>
</svg>
