<svg width="50" height="51" viewBox="0 0 50 51" fill="none" xmlns="http://www.w3.org/2000/svg">
<g clip-path="url(#clip0_2029_207)">
<path d="M49.5594 24.5772L47.1115 17.1991C46.476 15.2814 44.7156 14.0418 42.6281 14.0418H36.074L36.3135 12.0887C36.4198 11.245 36.1698 10.4095 35.6292 9.796C35.0896 9.18454 34.2969 8.8335 33.4521 8.8335H8.20521C6.53854 8.8335 5.02604 10.1804 4.83333 11.8262L4.7 12.8679C4.62812 13.4387 5.03021 13.9606 5.60104 14.0335C6.17917 14.1168 6.69479 13.7033 6.76667 13.1325L6.90104 12.0793C6.97292 11.4595 7.58229 10.9168 8.20521 10.9168H33.4521C33.7021 10.9168 33.9198 11.0085 34.0667 11.1741C34.2156 11.3429 34.2792 11.5741 34.2469 11.8325L31.8073 31.7512H4.46146C4.46146 31.2345 4.09167 30.7825 3.56562 30.7179C2.99375 30.645 2.47396 31.0522 2.40417 31.6231L2.01562 34.7554C1.91562 35.6022 2.17083 36.4387 2.71562 37.0502C3.26042 37.6637 4.02917 38.0012 4.87812 38.0012H6.89479C6.91042 39.0356 7.25208 40.0002 7.925 40.7585C8.72812 41.6668 9.87187 42.1679 11.1427 42.1679C13.526 42.1679 15.6927 40.3293 16.1802 38.0012H34.2292C34.2448 39.0356 34.5865 39.9991 35.2573 40.7575C36.0615 41.6668 37.2052 42.1679 38.4771 42.1679C40.8594 42.1679 43.026 40.3293 43.5146 38.0012H45.7573C47.4427 38.0012 48.924 36.6835 49.1292 35.0033L49.9292 28.4793C50.0948 27.1283 49.9708 25.8158 49.5604 24.5783L49.5594 24.5772ZM47.325 24.4585H41.0479L41.5427 20.4189C41.55 20.3658 41.6354 20.2918 41.6781 20.2918H45.9427L47.325 24.4585ZM35.8198 16.1252H42.6292C43.8219 16.1252 44.7802 16.7877 45.1344 17.8554L45.2521 18.2085H41.6781C40.5771 18.2085 39.6104 19.0679 39.476 20.1647L38.9656 24.3314C38.8958 24.9022 39.0677 25.4689 39.4375 25.8866C39.8062 26.3022 40.3427 26.5408 40.9125 26.5408H47.8646C47.9281 27.0887 47.9323 27.6502 47.8615 28.2241L47.4292 31.7491H33.9052L35.8187 16.1241L35.8198 16.1252ZM34.674 35.9168H33.3948L33.65 33.8335H36.3729C35.6437 34.3741 35.0531 35.0897 34.674 35.9168ZM31.2969 35.9168H16.1521C15.9875 35.2845 15.6938 34.6981 15.2552 34.2022C15.1323 34.0637 14.9885 33.9533 14.851 33.8335H31.5531L31.2969 35.9168ZM7.33021 35.9168H4.87708C4.62708 35.9168 4.41771 35.8293 4.27083 35.6647C4.11875 35.495 4.05312 35.2575 4.08229 35.0033L4.22708 33.8335H9.00312C8.28021 34.371 7.7 35.0845 7.32917 35.9168H7.33021ZM14.201 37.3522C14.0198 38.8335 12.6187 40.0835 11.1417 40.0835C10.475 40.0835 9.8875 39.8325 9.48333 39.3762C9.07292 38.9137 8.89375 38.2845 8.97604 37.6064C9.15833 36.1252 10.5594 34.8752 12.0365 34.8752C12.7031 34.8752 13.2917 35.1262 13.6948 35.5825C14.1052 36.045 14.2844 36.6741 14.201 37.3522ZM41.5354 37.3522C41.3531 38.8335 39.9521 40.0835 38.476 40.0835C37.8094 40.0835 37.2208 39.8325 36.8167 39.3762C36.4062 38.9137 36.2271 38.2845 36.3104 37.6064C36.4927 36.1252 37.8937 34.8752 39.3698 34.8752C40.0365 34.8752 40.625 35.1262 41.0292 35.5825C41.4396 36.045 41.6187 36.6741 41.5354 37.3522ZM45.7573 35.9168H43.4865C43.3219 35.2845 43.0281 34.6981 42.5896 34.2022C42.4667 34.0637 42.3229 33.9533 42.1854 33.8335H47.175L47.0625 34.7481C46.9865 35.371 46.376 35.9168 45.7573 35.9168Z" fill="#647167"/>
<path d="M9.40625 27.5832C9.40625 27.0071 8.94063 26.5415 8.36458 26.5415H1.04167C0.465625 26.5415 0 27.0071 0 27.5832C0 28.1592 0.465625 28.6248 1.04167 28.6248H8.36458C8.94063 28.6248 9.40625 28.1592 9.40625 27.5832Z" fill="#647167"/>
<path d="M4.2573 21.3335C3.68126 21.3335 3.21564 21.8002 3.21564 22.3752C3.21564 22.9502 3.68126 23.4168 4.2573 23.4168H9.00835C9.58439 23.4168 10.05 22.9502 10.05 22.3752C10.05 21.8002 9.58439 21.3335 9.00835 21.3335H4.2573Z" fill="#647167"/>
<path d="M2.26564 18.2083H10.6823C11.2583 18.2083 11.724 17.7417 11.724 17.1667C11.724 16.5917 11.2583 16.125 10.6823 16.125H2.26564C1.68959 16.125 1.22397 16.5917 1.22397 17.1667C1.22397 17.7417 1.68959 18.2083 2.26564 18.2083Z" fill="#647167"/>
</g>
<defs>
<clipPath id="clip0_2029_207">
<rect width="50" height="50" fill="white" transform="translate(0 0.5)"/>
</clipPath>
</defs>
</svg>
