<svg width="24" height="17" viewBox="0 0 24 17" fill="none" xmlns="http://www.w3.org/2000/svg">
<path d="M22.2484 7.3995C22.5828 7.8681 22.75 8.1035 22.75 8.45C22.75 8.7976 22.5828 9.0319 22.2484 9.5005C20.7458 11.6081 16.9079 16.15 11.75 16.15C6.591 16.15 2.7542 11.607 1.2516 9.5005C0.9172 9.0319 0.75 8.7965 0.75 8.45C0.75 8.1024 0.9172 7.8681 1.2516 7.3995C2.7542 5.2919 6.5921 0.75 11.75 0.75C16.909 0.75 20.7458 5.293 22.2484 7.3995Z" stroke="white" stroke-width="1.5"/>
<path d="M15.0492 8.44844C15.0492 7.57322 14.7015 6.73385 14.0827 6.11498C13.4638 5.49611 12.6244 5.14844 11.7492 5.14844C10.874 5.14844 10.0346 5.49611 9.41577 6.11498C8.7969 6.73385 8.44922 7.57322 8.44922 8.44844C8.44922 9.32365 8.7969 10.163 9.41577 10.7819C10.0346 11.4008 10.874 11.7484 11.7492 11.7484C12.6244 11.7484 13.4638 11.4008 14.0827 10.7819C14.7015 10.163 15.0492 9.32365 15.0492 8.44844Z" stroke="white" stroke-width="1.5"/>
</svg>
