<svg width="24" height="14" viewBox="0 0 24 14" fill="none" xmlns="http://www.w3.org/2000/svg">
<path d="M16.2993 -0.000976562C20.1756 -0.000976562 23.3178 3.08993 23.3178 6.90234C23.3176 10.7146 20.1755 13.8047 16.2993 13.8047C14.5614 13.8046 12.9723 13.1823 11.7465 12.1533C10.5208 13.1819 8.93231 13.8047 7.19476 13.8047C3.31862 13.8046 0.176393 10.7145 0.176208 6.90234C0.176208 3.08999 3.31851 -0.00088025 7.19476 -0.000976562C8.93202 -0.000976562 10.5209 0.621128 11.7465 1.64941C12.9722 0.620769 14.5617 -0.00093339 16.2993 -0.000976562Z" fill="#ED0006"/>
<path d="M16.3001 -0.000976562C20.1765 -0.000976562 23.3187 3.08993 23.3187 6.90234C23.3185 10.7146 20.1763 13.8047 16.3001 13.8047C14.5623 13.8046 12.9731 13.1823 11.7474 12.1533C13.2558 10.8872 14.2141 9.00553 14.2142 6.90234C14.2142 4.79871 13.2563 2.91555 11.7474 1.64941C12.9731 0.620769 14.5626 -0.000933504 16.3001 -0.000976562Z" fill="#F9A000"/>
<path d="M11.7466 1.6499C13.2552 2.916 14.2124 4.79848 14.2125 6.90186C14.2125 9.00522 13.2552 10.8877 11.7466 12.1538C10.2382 10.8877 9.28082 9.0051 9.28082 6.90186C9.28093 4.79859 10.2381 2.91596 11.7466 1.6499Z" fill="#FF5E00"/>
</svg>
