<svg width="21" height="18" viewBox="0 0 21 18" fill="none" xmlns="http://www.w3.org/2000/svg">
<path fill-rule="evenodd" clip-rule="evenodd" d="M3.06294 12.2393H1.48828C1.38052 12.2393 1.28887 12.3166 1.27207 12.4217L0.635197 16.4107C0.622538 16.4895 0.684243 16.5604 0.765063 16.5604H1.51682C1.62458 16.5604 1.71622 16.4831 1.73303 16.3778L1.9048 15.3019C1.92137 15.1965 2.01324 15.1193 2.12077 15.1193H2.61925C3.65654 15.1193 4.25515 14.6234 4.41157 13.6407C4.482 13.2108 4.41456 12.873 4.21072 12.6364C3.98696 12.3767 3.58995 12.2393 3.06294 12.2393ZM3.24461 13.6962C3.15852 14.2544 2.72679 14.2544 2.30935 14.2544H2.07173L2.23843 13.2119C2.24833 13.1489 2.30358 13.1025 2.36806 13.1025H2.47696C2.76132 13.1025 3.02959 13.1025 3.16821 13.2626C3.25079 13.3582 3.27615 13.5001 3.24461 13.6962ZM7.77 13.6783H7.01592C6.95167 13.6783 6.89616 13.7247 6.88625 13.7878L6.8529 13.9961L6.80016 13.9206C6.63692 13.6865 6.27294 13.6083 5.90959 13.6083C5.07625 13.6083 4.36458 14.2318 4.22596 15.1064C4.15393 15.5426 4.25633 15.9598 4.50683 16.2507C4.73666 16.5182 5.06548 16.6297 5.45664 16.6297C6.12802 16.6297 6.50042 16.2032 6.50042 16.2032L6.46675 16.4102C6.45407 16.4894 6.51577 16.5603 6.59611 16.5603H7.27538C7.38342 16.5603 7.47453 16.483 7.49157 16.3777L7.89914 13.828C7.91203 13.7496 7.85055 13.6783 7.77 13.6783ZM6.71886 15.1282C6.64608 15.5538 6.30415 15.8395 5.86814 15.8395C5.64918 15.8395 5.47411 15.7701 5.36181 15.6386C5.25035 15.5081 5.20794 15.3222 5.24343 15.1153C5.31141 14.6933 5.65909 14.3983 6.08849 14.3983C6.30256 14.3983 6.47666 14.4685 6.59131 14.6012C6.70618 14.7352 6.75178 14.9221 6.71886 15.1282ZM11.0283 13.6782H11.7861C11.8922 13.6782 11.9541 13.7958 11.8938 13.8818L9.3735 17.4757C9.33269 17.5339 9.26546 17.5685 9.19364 17.5685H8.4368C8.33025 17.5685 8.26802 17.45 8.32972 17.3638L9.11447 16.2695L8.27985 13.8497C8.25097 13.7656 8.31384 13.6782 8.40441 13.6782H9.149C9.24575 13.6782 9.33109 13.7409 9.35901 13.8324L9.80195 15.2939L10.8471 13.7731C10.888 13.7137 10.956 13.6782 11.0283 13.6782Z" fill="#253B80"/>
<path fill-rule="evenodd" clip-rule="evenodd" d="M19.2428 16.411L19.889 12.3489C19.8989 12.2859 19.9542 12.2395 20.0185 12.2393H20.746C20.8264 12.2393 20.8881 12.3104 20.8754 12.3892L20.2381 16.378C20.2215 16.4833 20.1298 16.5606 20.0219 16.5606H19.3721C19.2918 16.5606 19.2301 16.4897 19.2428 16.411ZM14.2935 12.2395H12.7186C12.6111 12.2395 12.5194 12.3168 12.5026 12.4219L11.8657 16.411C11.8531 16.4897 11.9147 16.5606 11.9952 16.5606H12.8033C12.8784 16.5606 12.9427 16.5065 12.9544 16.4328L13.1351 15.3021C13.1517 15.1967 13.2436 15.1195 13.3511 15.1195H13.8493C14.8868 15.1195 15.4853 14.6236 15.6418 13.6409C15.7125 13.211 15.6446 12.8733 15.4409 12.6366C15.2172 12.3769 14.8205 12.2395 14.2935 12.2395ZM14.4752 13.6964C14.3893 14.2546 13.9576 14.2546 13.5399 14.2546H13.3025L13.4694 13.2121C13.4794 13.1492 13.5341 13.1027 13.5988 13.1027H13.7077C13.9919 13.1027 14.2604 13.1027 14.3989 13.2628C14.4816 13.3584 14.5067 13.5003 14.4752 13.6964ZM19.0002 13.6785H18.2466C18.1818 13.6785 18.1269 13.7249 18.1172 13.788L18.0838 13.9963L18.0309 13.9208C17.8676 13.6867 17.5038 13.6085 17.1405 13.6085C16.3072 13.6085 15.5957 14.232 15.4571 15.1066C15.3853 15.5428 15.4872 15.96 15.7377 16.251C15.968 16.5184 16.2964 16.6299 16.6875 16.6299C17.3589 16.6299 17.7312 16.2034 17.7312 16.2034L17.6977 16.4104C17.685 16.4896 17.7467 16.5605 17.8275 16.5605H18.5065C18.614 16.5605 18.7056 16.4832 18.7225 16.3779L19.1303 13.8282C19.1427 13.7498 19.081 13.6785 19.0002 13.6785ZM17.9491 15.1284C17.8768 15.554 17.5344 15.8397 17.0983 15.8397C16.8798 15.8397 16.7044 15.7703 16.592 15.6388C16.4805 15.5083 16.4386 15.3224 16.4737 15.1155C16.542 14.6935 16.8892 14.3985 17.3187 14.3985C17.5328 14.3985 17.7068 14.4687 17.8216 14.6014C17.9369 14.7354 17.9825 14.9223 17.9491 15.1284Z" fill="#179BD7"/>
<path d="M8.89128 10.8133L9.08489 9.59858L8.65367 9.58869H6.59454L8.02554 0.624856C8.02991 0.597793 8.0444 0.572561 8.0655 0.554645C8.0866 0.536729 8.11366 0.526855 8.14179 0.526855H11.6138C12.7665 0.526855 13.5619 0.763814 13.9772 1.23151C14.1719 1.45092 14.2959 1.68019 14.3559 1.93251C14.4188 2.19727 14.42 2.51358 14.3585 2.89937L14.354 2.92752V3.17471L14.5488 3.28369C14.7128 3.36962 14.843 3.46799 14.9429 3.58062C15.1096 3.76821 15.2173 4.00663 15.2628 4.2893C15.3098 4.58001 15.2942 4.92594 15.2173 5.31758C15.1284 5.7681 14.9848 6.16047 14.7909 6.48153C14.6124 6.77736 14.3851 7.02268 14.1153 7.21289C13.8577 7.39352 13.5516 7.53068 13.2055 7.61847C12.87 7.70468 12.4877 7.74826 12.0684 7.74826H11.7981C11.605 7.74826 11.4172 7.817 11.27 7.94026C11.1223 8.06605 11.0245 8.23784 10.9945 8.42584L10.9742 8.53521L10.6321 10.6762L10.6166 10.7548C10.6125 10.7797 10.6055 10.7922 10.5952 10.8006C10.5859 10.8082 10.5726 10.8133 10.5596 10.8133H8.89128Z" fill="#253B80"/>
<path d="M14.7307 2.95557C14.7204 3.02102 14.7086 3.08794 14.6953 3.15668C14.2373 5.4791 12.6709 6.2814 10.6701 6.2814H9.65149C9.40684 6.2814 9.20067 6.45691 9.16252 6.69533L8.64095 9.96306L8.49326 10.8893C8.46844 11.0458 8.59065 11.187 8.75048 11.187H10.5573C10.7712 11.187 10.9529 11.0334 10.9866 10.825L11.0044 10.7342L11.3446 8.60158L11.3664 8.48463C11.3997 8.27547 11.5818 8.12189 11.7957 8.12189H12.066C13.8164 8.12189 15.1868 7.41979 15.5873 5.38805C15.7546 4.53931 15.668 3.83063 15.2252 3.33221C15.0913 3.18191 14.9251 3.05722 14.7307 2.95557Z" fill="#179BD7"/>
<path d="M14.2522 2.76636C14.1823 2.74625 14.11 2.72796 14.036 2.71151C13.9616 2.69543 13.8853 2.68116 13.8069 2.66873C13.5322 2.62485 13.2313 2.604 12.9089 2.604H10.1875C10.1205 2.604 10.0569 2.61899 9.99987 2.64606C9.87435 2.70566 9.78112 2.82305 9.75853 2.96675L9.17953 6.58915L9.1629 6.69482C9.20105 6.4564 9.40723 6.28088 9.65187 6.28088H10.6705C12.6712 6.28088 14.2378 5.47822 14.6956 3.15617C14.7093 3.08743 14.7208 3.02051 14.7311 2.95506C14.6153 2.89435 14.4898 2.84243 14.3547 2.79817C14.3214 2.7872 14.287 2.7766 14.2522 2.76636Z" fill="#222D65"/>
<path d="M9.76046 2.9672C9.78305 2.82348 9.87639 2.7061 10.0018 2.64686C10.0592 2.6198 10.1225 2.60481 10.1894 2.60481H12.9109C13.2333 2.60481 13.5342 2.62565 13.8088 2.66954C13.8873 2.68197 13.9636 2.69623 14.038 2.71231C14.1121 2.72878 14.1842 2.74706 14.2542 2.76717C14.2889 2.77741 14.3233 2.78801 14.357 2.79862C14.4921 2.84286 14.6176 2.89516 14.7335 2.95549C14.8698 2.09725 14.7324 1.5129 14.2627 0.983763C13.7449 0.401245 12.8102 0.151855 11.6143 0.151855H8.14214C7.89782 0.151855 7.68951 0.327372 7.65168 0.566162L6.20555 9.62214C6.177 9.8013 6.3169 9.96299 6.49975 9.96299H8.64336L9.18156 6.58959L9.76046 2.9672Z" fill="#253B80"/>
</svg>
