<svg width="24" height="22" viewBox="0 0 24 22" fill="none" xmlns="http://www.w3.org/2000/svg">
<path d="M12 21.6648C11.6583 21.6648 11.3289 21.541 11.0722 21.3162C10.1026 20.4684 9.16789 19.6717 8.34318 18.9689L8.33897 18.9653C5.92107 16.9048 3.83312 15.1254 2.38037 13.3725C0.756407 11.4129 0 9.55493 0 7.52521C0 5.55316 0.676207 3.73383 1.90393 2.4021C3.1463 1.05463 4.851 0.3125 6.70458 0.3125C8.08995 0.3125 9.35869 0.750488 10.4754 1.6142C11.039 2.05017 11.5499 2.58374 12 3.20612C12.4502 2.58374 12.9609 2.05017 13.5247 1.6142C14.6415 0.750488 15.9102 0.3125 17.2956 0.3125C19.149 0.3125 20.8538 1.05463 22.0962 2.4021C23.3239 3.73383 24 5.55316 24 7.52521C24 9.55493 23.2437 11.4129 21.6198 13.3723C20.167 15.1254 18.0793 16.9046 15.6617 18.9649C14.8355 19.6688 13.8993 20.4667 12.9276 21.3165C12.6711 21.541 12.3415 21.6648 12 21.6648Z" fill="#FCD9D1"/>
</svg>
