<svg width="22" height="22" viewBox="0 0 22 22" fill="none" xmlns="http://www.w3.org/2000/svg">
<path d="M4.55859 5.51172H16.9395C19.1362 5.51172 20.6881 7.25077 20.7291 9.44743C20.7415 10.1022 20.7491 10.8522 20.7491 11.7022C20.7491 13.8355 20.7005 15.3389 20.6538 16.2936C20.6153 17.0808 20.06 17.7174 19.2753 17.7927C18.7043 17.8474 17.9329 17.8927 16.9395 17.8927H4.55859" stroke="#2E2E2D" stroke-width="1.5" stroke-linejoin="round"/>
<path d="M9.37305 17.8926C9.40876 18.6554 9.45638 19.3712 9.49305 19.8692C9.52305 20.2835 9.82257 20.6273 10.2345 20.6807C10.5226 20.7178 10.8721 20.7497 11.2269 20.7497C11.5588 20.7471 11.8902 20.724 12.2192 20.6807C12.6311 20.6273 12.9307 20.2835 12.9611 19.8692C12.9973 19.3707 13.045 18.655 13.0807 17.8926" stroke="#2E2E2D" stroke-width="1.5" stroke-linecap="round" stroke-linejoin="round"/>
<path d="M4.55954 5.51172C2.36287 5.51172 0.810965 7.25077 0.770012 9.44743C0.75634 10.1989 0.749673 10.9506 0.750012 11.7022C0.750012 13.8355 0.798584 15.3389 0.84525 16.2936C0.883822 17.0808 1.43906 17.7174 2.22382 17.7927C2.79477 17.8474 3.5662 17.8927 4.55954 17.8927C5.55287 17.8927 6.3243 17.8474 6.89525 17.7927C7.68001 17.717 8.23525 17.0808 8.27382 16.2936C8.32049 15.3389 8.36906 13.8355 8.36906 11.7022C8.36906 10.8522 8.36144 10.1022 8.34906 9.44743C8.30811 7.25077 6.7562 5.51172 4.55954 5.51172Z" stroke="#2E2E2D" stroke-width="1.5" stroke-linejoin="round"/>
<path d="M11.7023 3.13095H13.369C13.5331 3.13063 13.6834 3.12952 13.8199 3.12762C14.5032 3.11667 15.0356 2.62381 15.0356 1.94048C15.0356 1.25714 14.5032 0.76381 13.8199 0.753333C13.6834 0.751111 13.5331 0.75 13.369 0.75H11.7023V13.6071M5.988 9.79762H3.13086" stroke="#2E2E2D" stroke-width="1.5" stroke-linecap="round" stroke-linejoin="round"/>
</svg>
