<svg width="50" height="50" viewBox="0 0 50 50" fill="none" xmlns="http://www.w3.org/2000/svg">
<path fill-rule="evenodd" clip-rule="evenodd" d="M35.8672 3.12825C35.6047 3.14075 35.3469 3.21731 35.1172 3.3595C34.6562 3.64544 34.375 4.147 34.375 4.68762V7.022C32.2984 6.22356 29.0109 5.14856 25.3969 4.74544C21.1844 4.27512 16.5984 4.74075 12.9672 7.39075C9.1375 10.1845 6.25 15.4626 6.25 25.0001C6.25 25.8626 6.95 26.5626 7.8125 26.5626C8.675 26.5626 9.375 25.8626 9.375 25.0001C9.375 16.8861 11.5516 12.2939 14.8109 9.91575C17.7953 7.73762 21.5859 7.46575 25.0484 7.85169C29.1203 8.30794 32.7672 9.69856 34.375 10.3845V14.0626C34.375 14.6032 34.6562 15.1048 35.1172 15.3907C35.5781 15.6751 36.1516 15.7017 36.6359 15.4611L46.0109 10.7736C46.5406 10.5079 46.875 9.96731 46.875 9.37512C46.875 8.78294 46.5406 8.24231 46.0109 7.97669L36.6359 3.28919C36.3937 3.16887 36.1297 3.11575 35.8672 3.12825ZM37.5 7.21419L41.8187 9.37512L37.5 11.5361V7.21419ZM25 12.5001C24.4562 12.5001 23.95 12.7845 23.6656 13.2486C23.6656 13.2486 21.3016 17.1173 19.8797 20.6001C19.2 22.2673 18.75 23.8657 18.75 25.0001C18.75 27.9111 20.7422 30.3579 23.4375 31.0517V35.9376C23.4375 36.8017 24.1375 37.5001 25 37.5001C25.8625 37.5001 26.5625 36.8017 26.5625 35.9376V31.0517C29.2578 30.3579 31.25 27.9111 31.25 25.0001C31.25 23.8657 30.8 22.2673 30.1203 20.6001C28.6984 17.1173 26.3344 13.2486 26.3344 13.2486C26.05 12.7845 25.5438 12.5001 25 12.5001ZM25 17.2001C25.7141 18.5032 26.5766 20.1845 27.2281 21.7798C27.7297 23.0064 28.125 24.1657 28.125 25.0001C28.125 26.1548 27.4953 27.1595 26.5625 27.7017V25.0001C26.5625 24.1361 25.8625 23.4345 25 23.4345C24.1375 23.4345 23.4375 24.1361 23.4375 25.0001V27.7017C22.5047 27.1595 21.875 26.1548 21.875 25.0001C21.875 24.1657 22.2703 23.0064 22.7719 21.7798C23.4234 20.1845 24.2859 18.5032 25 17.2001ZM42.1875 23.3345C41.325 23.3345 40.625 24.0345 40.625 24.897C40.625 33.0111 38.4484 37.6032 35.1891 39.9814C32.2047 42.1595 28.4141 42.4298 24.9516 42.0439C20.8797 41.5892 17.2328 40.1939 15.625 39.5079V35.9376C15.625 35.397 15.3437 34.8954 14.8828 34.6095C14.4219 34.3251 13.8484 34.2986 13.3641 34.5392L3.98906 39.2267C3.45937 39.4923 3.125 40.0329 3.125 40.6251C3.125 41.2173 3.45937 41.7579 3.98906 42.0236L13.3641 46.7111C13.8484 46.9517 14.4219 46.9251 14.8828 46.6407C15.3437 46.3548 15.625 45.8548 15.625 45.3126V42.8736C17.7016 43.6736 20.9891 44.7439 24.6031 45.1486C28.8156 45.6189 33.4016 45.1548 37.0328 42.5048C40.8625 39.7111 43.75 34.4345 43.75 24.897C43.75 24.0345 43.05 23.3345 42.1875 23.3345ZM12.5 38.4642V42.7861L8.18125 40.6251L12.5 38.4642Z" fill="#647167"/>
</svg>
