<svg width="50" height="51" viewBox="0 0 50 51" fill="none" xmlns="http://www.w3.org/2000/svg">
<path d="M14.9381 20.362L16.8147 21.3882L17.8409 23.2648C17.9778 23.5154 18.2406 23.671 18.5262 23.671C18.8119 23.671 19.0747 23.5151 19.2115 23.2648L20.2378 21.3882L22.1147 20.3616C22.3653 20.2248 22.5209 19.962 22.5209 19.6763C22.5209 19.3907 22.365 19.1279 22.1147 18.991L20.2378 17.9645L19.2115 16.0879C19.0747 15.8373 18.8119 15.6816 18.5262 15.6816C18.2406 15.6816 17.9778 15.8376 17.8409 16.0879L16.8147 17.9645L14.9381 18.9907C14.6875 19.1276 14.5319 19.3904 14.5319 19.676C14.5319 19.9616 14.6875 20.2251 14.9381 20.362ZM17.7653 19.2257C17.8962 19.1541 18.004 19.0463 18.0759 18.9151L18.5265 18.091L18.9772 18.9151C19.0487 19.046 19.1565 19.1538 19.2878 19.2257L20.1119 19.6763L19.2878 20.127C19.1569 20.1985 19.049 20.3063 18.9772 20.4376L18.5265 21.2616L18.0759 20.4376C18.0044 20.3066 17.8965 20.1988 17.7653 20.127L16.9412 19.6763L17.7653 19.2257Z" fill="#647167"/>
<path d="M48.3715 25.266C48.3715 23.4123 46.8634 21.9045 45.0097 21.9045H44.9978H43.5437V16.0782C43.5437 13.8501 41.7312 12.0376 39.5062 12.0376H38.7281L36.4 13.3095L35.9 14.2251H39.5062C40.5281 14.2251 41.3562 15.0563 41.3562 16.0782V21.9045H39.9462H39.9344C38.0806 21.9045 36.5725 23.4126 36.5725 25.266V28.9201H30.3465C28.7147 28.9201 27.2265 29.5323 26.0875 30.5332V30.0154C26.0875 30.0148 26.0875 30.0145 26.0875 30.0138V16.0773C26.0875 16.077 26.0875 16.0766 26.0875 16.0763C26.0887 15.0554 26.9194 14.2251 27.9406 14.2251H32.4509L33.0447 15.3107C33.1815 15.5613 33.4444 15.717 33.73 15.717C34.0156 15.717 34.2784 15.561 34.4153 15.3104L35.0087 14.2251L35.8247 12.7345L36.104 12.5813L38.3994 11.326C38.65 11.1891 38.8059 10.9263 38.8059 10.6407C38.8059 10.3551 38.65 10.0923 38.3994 9.95539L35.8237 8.54664L34.4153 5.97102C34.2784 5.72039 34.0156 5.56445 33.73 5.56445C33.4444 5.56445 33.1815 5.72039 33.0447 5.9707L31.6359 8.54664L29.0603 9.95539C28.8097 10.0923 28.6537 10.3554 28.6537 10.6407C28.6537 10.9263 28.8097 11.1891 29.0603 11.326L30.3609 12.0373H27.9406C26.7812 12.0373 25.7312 12.5279 24.9937 13.3154C24.9928 13.3163 24.9922 13.3176 24.9912 13.3185C24.2537 12.532 23.2087 12.0373 22.0481 12.0373H10.4825C8.25498 12.0373 6.44279 13.8495 6.44279 16.077V21.9041H4.99029C3.13654 21.9041 1.62842 23.4123 1.62842 25.2657V35.3873V39.4238C1.62842 41.6701 3.45561 43.497 5.70154 43.497H6.42811V45.1232C6.42811 47.0382 7.98592 48.596 9.90092 48.596C11.8159 48.596 13.374 47.0382 13.374 45.1232V43.497H36.6137V45.1232C36.6137 47.0382 38.1715 48.596 40.0869 48.596C42.0019 48.596 43.5597 47.0382 43.5597 45.1232V43.497H44.2862C46.5325 43.497 48.3594 41.6698 48.3594 39.4238V35.5054C48.3637 35.466 48.3712 35.4279 48.3712 35.3873V25.266H48.3715ZM32.8972 11.7841C32.8256 11.6532 32.7178 11.5454 32.5865 11.4735L31.0634 10.6404L32.5865 9.80727C32.7178 9.7357 32.8256 9.62789 32.8972 9.49664L33.7303 7.97352L34.5631 9.49664C34.6347 9.62789 34.7425 9.7357 34.8737 9.80727L36.3969 10.6404L34.8737 11.4735C34.7425 11.5451 34.6347 11.6529 34.5631 11.7841L33.7303 13.3073L32.8972 11.7841ZM45.0097 24.092C45.6572 24.092 46.184 24.6188 46.184 25.266V34.2938H38.7719V30.0138V25.266C38.7719 24.6185 39.2987 24.092 39.9462 24.092H44.9978H45.0097ZM30.3465 31.1076H36.5844V34.2935H26.2087C26.6931 32.462 28.365 31.1076 30.3465 31.1076ZM3.81592 25.266C3.81592 24.6185 4.34279 24.092 4.99029 24.092H10.0537C10.7012 24.092 11.2281 24.6188 11.2281 25.266V34.2938H3.81592V25.266ZM13.4156 31.1076H19.2994C21.2812 31.1076 22.9528 32.462 23.4375 34.2935H13.4156V31.1076ZM8.63029 16.0773C8.63029 15.056 9.46123 14.2251 10.4825 14.2251H22.0478C23.0681 14.2251 23.8984 15.0548 23.9 16.0748C23.9 16.076 23.8997 16.0773 23.8997 16.0785V30.8498C22.7262 29.6604 21.0978 28.9207 19.299 28.9207H13.4156V25.266C13.4156 23.4123 11.9075 21.9045 10.0537 21.9045H8.63029V16.0773ZM11.1865 45.1235C11.1865 45.8326 10.61 46.4088 9.90092 46.4088C9.19217 46.4088 8.61561 45.8323 8.61561 45.1235V43.4973H11.1865V45.1235ZM41.3725 45.1235C41.3725 45.8326 40.7959 46.4088 40.0872 46.4088C39.3784 46.4088 38.8015 45.8323 38.8015 45.1235V43.4973H41.3728V45.1235H41.3725ZM46.1722 39.4241C46.1722 40.4638 45.3262 41.3098 44.2865 41.3098H42.4662H37.7075H12.2803H7.52186H5.70154C4.66186 41.3098 3.81592 40.4638 3.81592 39.4241V36.4813H12.2803H12.3215H24.6725H24.9731H37.6781H46.1722V39.4241Z" fill="#647167"/>
<path d="M6.53748 7.08398L8.41404 8.11023L9.44029 9.9868C9.57716 10.2374 9.83998 10.393 10.1256 10.393C10.4112 10.393 10.674 10.2371 10.8109 9.9868L11.8372 8.11023L13.7137 7.08398C13.9643 6.94711 14.12 6.6843 14.12 6.39867C14.12 6.11305 13.964 5.85023 13.7137 5.71336L11.8372 4.68711L10.8109 2.81055C10.674 2.55992 10.4112 2.4043 10.1256 2.4043C9.83998 2.4043 9.57716 2.56023 9.44029 2.81055L8.41404 4.68711L6.53748 5.71336C6.28685 5.85023 6.13123 6.11305 6.13123 6.39867C6.13123 6.6843 6.28685 6.94711 6.53748 7.08398ZM9.36466 5.94805C9.4956 5.87648 9.60341 5.76867 9.67529 5.63742L10.1259 4.81336L10.5765 5.63742C10.6481 5.76836 10.7559 5.87617 10.8872 5.94805L11.7112 6.39867L10.8872 6.8493C10.7562 6.92086 10.6484 7.02867 10.5765 7.15992L10.1259 7.98398L9.67529 7.15992C9.60373 7.02898 9.49591 6.92117 9.36466 6.8493L8.5406 6.39867L9.36466 5.94805Z" fill="#647167"/>
</svg>
