<svg width="18" height="22" viewBox="0 0 18 22" fill="none" xmlns="http://www.w3.org/2000/svg">
<path fill-rule="evenodd" clip-rule="evenodd" d="M4.2595 5.75H2.93099C2.01299 5.75 1.25099 6.4595 1.18549 7.3755L0.328499 19.3755C0.293999 19.86 0.461992 20.337 0.792992 20.6925C1.12449 21.048 1.588 21.25 2.074 21.25H15.926C16.412 21.25 16.8755 21.048 17.207 20.6925C17.538 20.337 17.706 19.86 17.6715 19.3755L16.8145 7.3755C16.749 6.4595 15.987 5.75 15.069 5.75H13.75V5.5C13.75 2.8765 11.6235 0.75 8.99999 0.75C6.47249 0.75 4.13649 2.763 4.24999 5.5C4.25349 5.583 4.2565 5.6665 4.2595 5.75ZM13.75 7.25V11C13.75 11.414 13.414 11.75 13 11.75C12.586 11.75 12.25 11.414 12.25 11V7.25H5.74999V11C5.74999 11.414 5.41399 11.75 4.99999 11.75C4.58599 11.75 4.24999 11.414 4.24999 11C4.24999 11 4.315 9.2475 4.2935 7.25H2.93099C2.79999 7.25 2.691 7.35149 2.682 7.48199L1.82449 19.482C1.81949 19.5515 1.8435 19.6195 1.891 19.6705C1.9385 19.721 2.0045 19.75 2.074 19.75H15.926C15.9955 19.75 16.0615 19.721 16.109 19.6705C16.1565 19.6195 16.1805 19.5515 16.1755 19.482L15.318 7.48199C15.309 7.35149 15.2 7.25 15.069 7.25H13.75ZM12.25 5.75V5.5C12.25 3.705 10.795 2.25 8.99999 2.25C7.20499 2.25 5.74999 3.705 5.74999 5.5V5.75H12.25Z" fill="black"/>
</svg>
