<svg width="26" height="9" viewBox="0 0 26 9" fill="none" xmlns="http://www.w3.org/2000/svg">
<path fill-rule="evenodd" clip-rule="evenodd" d="M6.93015 8.25962H4.74925L3.11384 2.19375C3.03621 1.91472 2.8714 1.66804 2.62895 1.55178C2.02392 1.2596 1.3572 1.02708 0.629883 0.909806V0.67627H4.14314C4.62803 0.67627 4.99169 1.02708 5.0523 1.4345L5.90084 5.81002L8.08068 0.67627H10.201L6.93015 8.25962ZM11.4123 8.25962H9.35264L11.0487 0.67627H13.1083L11.4123 8.25962ZM15.7745 2.7762C15.8351 2.36777 16.1988 2.13423 16.623 2.13423C17.2898 2.07559 18.016 2.19287 18.6221 2.48403L18.9858 0.851298C18.3797 0.617762 17.713 0.500488 17.1079 0.500488C15.1089 0.500488 13.6542 1.5509 13.6542 3.00873C13.6542 4.11777 14.6846 4.70009 15.4119 5.0509C16.1988 5.4007 16.5018 5.63424 16.4412 5.98404C16.4412 6.50874 15.8351 6.74227 15.2301 6.74227C14.5027 6.74227 13.7754 6.56737 13.1098 6.2752L12.7461 7.90894C13.4734 8.2001 14.2603 8.31738 14.9876 8.31738C17.2291 8.375 18.6221 7.32561 18.6221 5.7505C18.6221 3.76696 15.7745 3.6507 15.7745 2.7762ZM25.8296 8.25962L24.1942 0.67627H22.4376C22.0739 0.67627 21.7102 0.909806 21.589 1.2596L18.5606 8.25962H20.6809L21.1041 7.15159H23.7093L23.9518 8.25962H25.8296ZM22.7405 2.71729L23.3455 5.57532H21.6495L22.7405 2.71729Z" fill="#172B85"/>
</svg>
